<?xml version="1.0" encoding="utf-8"?>
<!-- Generator: Adobe Illustrator 18.0.0, SVG Export Plug-In . SVG Version: 6.00 Build 0)  -->
<!DOCTYPE svg PUBLIC "-//W3C//DTD SVG 1.1//EN" "http://www.w3.org/Graphics/SVG/1.1/DTD/svg11.dtd">
<svg version="1.1"
	 id="svg2" sodipodi:version="0.32" inkscape:export-xdpi="76.235291" inkscape:version="0.46" inkscape:export-ydpi="76.235291" inkscape:output_extension="org.inkscape.output.svg.inkscape" xmlns:inkscape="http://www.inkscape.org/namespaces/inkscape" xmlns:rdf="http://www.w3.org/1999/02/22-rdf-syntax-ns#" xmlns:svg="http://www.w3.org/2000/svg" xmlns:sodipodi="http://sodipodi.sourceforge.net/DTD/sodipodi-0.dtd" xmlns:dc="http://purl.org/dc/elements/1.1/" xmlns:cc="http://creativecommons.org/ns#"
	 xmlns="http://www.w3.org/2000/svg" xmlns:xlink="http://www.w3.org/1999/xlink" x="0px" y="0px" viewBox="0 0 612 792"
	 enable-background="new 0 0 612 792" xml:space="preserve">
<path id="path4779_1_" fill="#4E9A06" stroke="#000000" stroke-width="4.058" d="M2.9,572.7l572.4-0.9V1.8L3.8,2.7L2.9,572.7
	L2.9,572.7z"/>
<rect id="rect4791" x="21.1" y="25" fill="#FFFFFF" stroke="#FFFFFF" stroke-width="4.058" stroke-linecap="round" stroke-linejoin="round" width="528.7" height="524.5"/>
<path id="path4779" fill="#4E9A06" stroke="#8AE234" stroke-width="4.058" d="M9.9,564l556.3-0.8V9.2L10.7,10.1L9.9,564L9.9,564z"/>
<path id="path4777" sodipodi:nodetypes="ccccc" fill="#FFFFFF" stroke="#8AE234" stroke-width="4.058" d="M54.5,523.2l468.8-1.8
	V53.7L52.7,52.9L54.5,523.2L54.5,523.2z"/>
<title  id="title8095">excel</title>
<path id="path4777_1_" sodipodi:nodetypes="ccccc" fill="#FFFFFF" stroke="#000000" stroke-width="4.058" d="M57.4,519.7l461.7-1.8
	V57.2L55.6,56.4L57.4,519.7L57.4,519.7z"/>
<defs>
	
	
		<inkscape:perspective  inkscape:persp3d-origin="372.04724 : 350.78739 : 1" inkscape:vp_z="744.09448 : 526.18109 : 1" inkscape:vp_y="0 : 1000 : 0" inkscape:vp_x="0 : 526.18109 : 1" id="perspective31019" sodipodi:type="inkscape:persp3d">
		</inkscape:perspective>
	
		<inkscape:perspective  inkscape:persp3d-origin="372.04724 : 350.78739 : 1" inkscape:vp_z="744.09448 : 526.18109 : 1" inkscape:vp_y="0 : 1000 : 0" inkscape:vp_x="0 : 526.18109 : 1" id="perspective3682" sodipodi:type="inkscape:persp3d">
		</inkscape:perspective>
	
		<inkscape:perspective  inkscape:persp3d-origin="372.04724 : 350.78739 : 1" inkscape:vp_z="744.09448 : 526.18109 : 1" inkscape:vp_y="0 : 1000 : 0" inkscape:vp_x="0 : 526.18109 : 1" id="perspective4711" sodipodi:type="inkscape:persp3d">
		</inkscape:perspective>
</defs>
<sodipodi:namedview  inkscape:window-y="29" inkscape:window-x="8" inkscape:window-width="1276" inkscape:window-maximized="0" inkscape:window-height="750" inkscape:pageshadow="2" inkscape:pageopacity="0.0" inkscape:guide-bbox="true" inkscape:document-units="px" inkscape:current-layer="layer1" borderopacity="1.0" inkscape:cy="266.9601" inkscape:cx="233.46589" showgrid="false" pagecolor="#ffffff" inkscape:zoom="0.40048678" showguides="true" id="base" bordercolor="#666666">
	<sodipodi:guide  orientation="horizontal" position="545.21834" id="guide2280"></sodipodi:guide>
	<sodipodi:guide  orientation="vertical" position="156.53416,335.69977" id="guide2282"></sodipodi:guide>
	<sodipodi:guide  orientation="vertical" position="712.54005" id="guide2284"></sodipodi:guide>
	<sodipodi:guide  orientation="horizontal" position="133.17442" id="guide2286"></sodipodi:guide>
	<sodipodi:guide  orientation="horizontal" position="900.35012" id="guide2491"></sodipodi:guide>
	<sodipodi:guide  orientation="vertical" position="414.32041" id="guide2495"></sodipodi:guide>
	<sodipodi:guide  orientation="horizontal" position="154.80103" id="guide2497"></sodipodi:guide>
	<sodipodi:guide  orientation="horizontal" position="936.7739" id="guide3687"></sodipodi:guide>
	<sodipodi:guide  orientation="vertical" position="-66.018088" id="guide3689"></sodipodi:guide>
	<sodipodi:guide  orientation="horizontal" position="87.644702" id="guide3691"></sodipodi:guide>
	<sodipodi:guide  orientation="vertical" position="785.38759" id="guide3693"></sodipodi:guide>
</sodipodi:namedview>
<path id="path4717" fill="#4E9A06" stroke="#2E3436" stroke-width="4.7343" stroke-linejoin="round" d="M123.5,166.2h103.6
	l54.3,55.3l53.1-54.1l103.6,1.3l5,18.8l-95.9,100.6l13.9,12.5l77,1.3l2.5,31.4l-23.9,27.6l39.2,36.5l1.3,22.6l-115-1.3l1.3-16.3
	l-221.2,1.3v-21.3l94.6-95.5l-95.9-93L123.5,166.2L123.5,166.2z"/>
<path id="path4729" sodipodi:nodetypes="cccccccccccccccccccc" opacity="0.97" fill="none" stroke="#8AE234" stroke-width="4.058" stroke-linejoin="round" enable-background="new    " d="
	M129.1,171.2l94.6,0.7l58.1,57.8l54.9-55.9l97.2,0.7l3.8,10.7l-99.1,102.5l20.2,19.5l75.2,0.7v23.3L410,361.3l40.5,39.6l-0.7,13.2
	H348.1l0.7-17l-222.9,2l1.3-13.8l98.6-98.1l-98.6-95.5L129.1,171.2L129.1,171.2z"/>
<radialGradient id="path4759_1_" cx="634.6345" cy="-198.5589" r="115.6455" gradientTransform="matrix(1.4094 0 0 1.3559 -650.3381 553.4818)" gradientUnits="userSpaceOnUse">
	<stop  offset="0" style="stop-color:#FFFFFF"/>
	<stop  offset="0.5037" style="stop-color:#FFFFFF"/>
	<stop  offset="1" style="stop-color:#FFFFFF;stop-opacity:6.666667e-02"/>
</radialGradient>
<path id="path4759" fill="none" stroke="url(#path4759_1_)" stroke-width="10.1449" stroke-linecap="round" d="M141.7,185.6
	L346.4,383"/>
</svg>
